<?xml version="1.0" encoding="UTF-8"?>
<svg width="1799px" height="1079px" viewBox="0 0 1799 1079" version="1.1" xmlns="http://www.w3.org/2000/svg" xmlns:xlink="http://www.w3.org/1999/xlink">
    <!-- Generator: Sketch 55.2 (78181) - https://sketchapp.com -->
    <title>VWO-Logo-Color</title>
    <desc>Created with Sketch.</desc>
    <g id="VWO-Logo-Color" stroke="none" stroke-width="1" fill="none" fill-rule="evenodd">
        <g id="Group-2-Copy-4" transform="translate(360.000000, 361.000000)" fill-rule="nonzero">
            <path d="M901.793483,0 C895.162648,0 887.205647,0 880.574813,1.32222222 L842.115973,68.7555556 C859.356142,58.1777778 880.574813,52.8888889 901.793483,52.8888889 C970.754161,52.8888889 1027.77934,109.744444 1027.77934,178.5 C1027.77934,247.255556 970.754161,304.111111 901.793483,304.111111 C832.832805,304.111111 777.133796,248.577778 775.807629,179.822222 L736.022622,247.255556 C762.54596,312.044444 827.528137,357 900.467316,357 C998.603666,357 1079.49985,276.344444 1079.49985,178.5 C1080.82601,80.6555556 999.929832,0 901.793483,0 Z" id="Shape" fill="#BF3078"></path>
            <path d="M360.717393,186.433333 L391.219232,133.544444 L460.17991,251.222222 L539.749923,115.033333 L619.319936,251.222222 L755.915125,19.8333333 C762.54596,7.93333333 775.807629,0 790.395464,0 L828.854304,0 L619.319936,357 L539.749923,220.811111 L460.17991,357 L360.717393,186.433333 Z" id="Shape" fill="#802050"></path>
            <path d="M417.742569,0 L208.208201,357 L0,0 L38.4588397,0 C53.0466755,0 66.3083443,7.93333333 72.9391788,19.8333333 L208.208201,252.544444 L344.80339,19.8333333 C351.434225,7.93333333 364.695894,0 379.28373,0 L417.742569,0 Z" id="Shape" fill="#26134D"></path>
        </g>
    </g>
</svg>